
<svg xmlns="http://www.w3.org/2000/svg" xmlns:xlink="http://www.w3.org/1999/xlink">
<symbol id="area__sprite" viewBox="0 0 512 512" fill="currentColor">
 <g><g><path d="M256,0C114.62,0,0,114.62,0,256s114.62,256,256,256s256-114.62,256-256S397.38,0,256,0z M256,486.4 C128.956,486.4,25.6,383.044,25.6,256S128.956,25.6,256,25.6S486.4,128.956,486.4,256S383.044,486.4,256,486.4z"/></g></g>
 <g><g><path d="M319.258,119.578c-13.858-11.981-31.718-17.98-53.581-17.98h-4.403c-22.673,0-42.001,7.074-58.001,21.197 c-17.604,15.753-26.402,36.804-26.402,63.198c0,4.275,1.203,7.603,3.601,10.001c2.398,2.15,5.325,3.072,8.798,2.799 c3.2,0,5.999-1.203,8.397-3.601c2.662-2.654,4.002-5.854,4.002-9.6c0-14.925,3.465-27.853,10.402-38.801 c10.129-15.454,26.522-23.202,49.203-23.202c19.2,0,33.724,5.197,43.597,15.599c8.26,8.55,12.527,19.601,12.8,33.203 c0,11.998-2.534,22.673-7.603,32c-5.871,10.675-16.401,22.4-31.599,35.2c-12.8,10.402-21.734,21.999-26.803,34.799 c-5.077,12.271-7.603,27.878-7.603,46.797c0,3.746,1.203,6.801,3.601,9.199c2.398,2.15,5.325,3.2,8.798,3.2 c3.2,0,5.999-1.05,8.397-3.2c2.662-2.398,4.002-5.453,4.002-9.199c0-18.654,2.261-33.05,6.801-43.204 c4.523-9.6,13.329-19.729,26.402-30.404c14.404-12.254,24.798-24.124,31.198-35.601c6.127-11.204,9.199-23.723,9.199-37.598 C342.46,150.929,334.72,132.651,319.258,119.578z"/></g></g><g><g>
 <circle cx="256" cy="384" r="25.6"/></g></g>
</symbol>

<svg id="clue__sprite_arctic" enable-background="new 0 0 514.411 514.411" viewBox="0 0 514.411 514.411">
<linearGradient id="lg1"><stop offset="0" stop-color="#c7e9ff"></stop><stop offset=".3556" stop-color="#a3e6f2"></stop><stop offset="1" stop-color="#65e0db"></stop></linearGradient><linearGradient id="SVGID_1_" gradientUnits="userSpaceOnUse" x1="259.411" x2="259.411" xlink:href="#lg1" y1="36.927" y2="485.968"></linearGradient><linearGradient id="lg2"><stop offset="0" stop-color="#edf5ff"></stop><stop offset="1" stop-color="#c7e9ff"></stop></linearGradient><linearGradient id="SVGID_2_" gradientUnits="userSpaceOnUse" x1="82.703" x2="169.155" xlink:href="#lg2" y1="103.909" y2="190.361"></linearGradient><linearGradient id="SVGID_3_" gradientUnits="userSpaceOnUse" x1="315.078" x2="399.963" y1="60.024" y2="144.91"><stop offset="0" stop-color="#ffd945"></stop><stop offset=".3043" stop-color="#ffcd3e"></stop><stop offset=".8558" stop-color="#ffad2b"></stop><stop offset="1" stop-color="#ffa325"></stop></linearGradient><linearGradient id="SVGID_4_" gradientUnits="userSpaceOnUse" x1="64.404" x2="100.244" xlink:href="#lg2" y1="284.198" y2="320.038"></linearGradient><linearGradient id="SVGID_5_" gradientUnits="userSpaceOnUse" x1="160.691" x2="184.691" xlink:href="#lg2" y1="180.194" y2="260.861"></linearGradient><linearGradient id="SVGID_6_" gradientUnits="userSpaceOnUse" x1="107.429" x2="119.429" xlink:href="#lg1" y1="356.72" y2="410.72"></linearGradient><linearGradient id="lg3"><stop offset="0" stop-color="#18cefb" stop-opacity="0"></stop><stop offset="1" stop-color="#0469bb"></stop></linearGradient><linearGradient id="SVGID_7_" gradientUnits="userSpaceOnUse" x1="73.545" x2="73.545" xlink:href="#lg3" y1="457.582" y2="317.64"></linearGradient><linearGradient id="SVGID_8_" gradientUnits="userSpaceOnUse" x1="205.755" x2="161.178" xlink:href="#lg3" y1="419.128" y2="309.573"></linearGradient><linearGradient id="SVGID_9_" gradientUnits="userSpaceOnUse" x1="121.84" x2="129.173" xlink:href="#lg1" y1="380.603" y2="433.936"></linearGradient><linearGradient id="SVGID_10_" gradientUnits="userSpaceOnUse" x1="255.528" x2="338.136" xlink:href="#lg2" y1="271.946" y2="354.555"></linearGradient><linearGradient id="lg4"><stop offset="0" stop-color="#2f73a0" stop-opacity="0"></stop><stop offset="1" stop-color="#2f73a0"></stop></linearGradient><linearGradient id="SVGID_11_" gradientUnits="userSpaceOnUse" x1="343.365" x2="343.365" xlink:href="#lg4" y1="286.909" y2="-350.728"></linearGradient><linearGradient id="SVGID_12_" gradientUnits="userSpaceOnUse" x1="337.1" x2="155.199" xlink:href="#lg4" y1="379.792" y2="236.992"></linearGradient><linearGradient id="SVGID_13_" gradientUnits="userSpaceOnUse" x1="281.245" x2="291.233" xlink:href="#lg2" y1="267.719" y2="334.478"></linearGradient><linearGradient id="SVGID_14_" gradientUnits="userSpaceOnUse" x1="334.198" x2="235.364" xlink:href="#lg4" y1="395.533" y2="395.533"></linearGradient><linearGradient id="SVGID_15_" gradientUnits="userSpaceOnUse" x1="200.573" x2="245.229" xlink:href="#lg2" y1="334.17" y2="386.192"></linearGradient><linearGradient id="SVGID_16_" gradientUnits="userSpaceOnUse" x1="392.278" x2="500.511" xlink:href="#lg2" y1="229.089" y2="408.155"></linearGradient><linearGradient id="SVGID_17_" gradientUnits="userSpaceOnUse" x1="395.424" x2="406.757" xlink:href="#lg4" y1="242.419" y2="348.952"></linearGradient><linearGradient id="SVGID_18_" gradientUnits="userSpaceOnUse" x1="470.431" x2="202.965" xlink:href="#lg4" y1="250.502" y2="-645.964"></linearGradient><linearGradient id="SVGID_19_" gradientUnits="userSpaceOnUse" x1="429.531" x2="342.643" xlink:href="#lg4" y1="338.012" y2="257.923"></linearGradient><linearGradient id="SVGID_20_" gradientUnits="userSpaceOnUse" x1="376.224" x2="484.458" xlink:href="#lg2" y1="238.792" y2="417.858"></linearGradient><linearGradient id="SVGID_21_" gradientUnits="userSpaceOnUse" x1="453.847" x2="347.303" xlink:href="#lg4" y1="377.84" y2="377.84"></linearGradient><linearGradient id="SVGID_22_" gradientUnits="userSpaceOnUse" x1="331.171" x2="410.504" xlink:href="#lg2" y1="356.676" y2="418.443"></linearGradient><linearGradient id="SVGID_23_" gradientUnits="userSpaceOnUse" x1="212.765" x2="276.358" xlink:href="#lg2" y1="413.912" y2="477.505"></linearGradient><linearGradient id="SVGID_24_" gradientUnits="userSpaceOnUse" x1="307.251" x2="252.374" xlink:href="#lg4" y1="415.848" y2="470.725"></linearGradient><linearGradient id="SVGID_25_" gradientUnits="userSpaceOnUse" x1="259.411" x2="259.411" y1="458.043" y2="516.987"><stop offset="0" stop-color="#18cefb"></stop><stop offset="1" stop-color="#4a97f6"></stop></linearGradient><linearGradient id="SVGID_26_" gradientUnits="userSpaceOnUse" x1="155.039" x2="155.039" y1="513.576" y2="470.181"><stop offset="0" stop-color="#4a97f6" stop-opacity="0"></stop><stop offset="1" stop-color="#0469bb"></stop></linearGradient><linearGradient id="SVGID_27_" gradientUnits="userSpaceOnUse" x1="91.997" x2="132.763" xlink:href="#lg2" y1="441.786" y2="482.552"></linearGradient><linearGradient id="SVGID_28_" gradientUnits="userSpaceOnUse" x1="158.41" x2="172.799" xlink:href="#lg2" y1="469.144" y2="498.903"></linearGradient><linearGradient id="SVGID_29_" gradientUnits="userSpaceOnUse" x1="260.208" x2="318.808" xlink:href="#lg2" y1="42.627" y2="101.227"></linearGradient><g><path d="m490.049 512.206h-461.275c-13.455 0-24.362-10.907-24.362-24.362v-461.276c0-13.455 10.907-24.362 24.362-24.362h461.275c13.455 0 24.362 10.907 24.362 24.362v461.275c0 13.455-10.907 24.363-24.362 24.363z" fill="url(#SVGID_1_)"></path><path d="m167.684 94.517h-11.749c0-14.706-11.922-26.627-26.627-26.627h-52.52c-14.706 0-26.627 11.922-26.627 26.627 0 5.506 1.672 10.622 4.535 14.868h-13.337c-13.402 0-24.266 10.864-24.266 24.266 0 13.402 10.864 24.266 24.266 24.266h47.863c8.41 0 15.819-4.28 20.173-10.778 1.858.411 3.787.634 5.768.634h52.521c14.706 0 26.627-11.922 26.627-26.627 0-14.707-11.922-26.629-26.627-26.629z" fill="url(#SVGID_2_)"></path><circle cx="336.411" cy="81.357" fill="url(#SVGID_3_)" r="66.943"></circle><g opacity=".46"><path d="m89.834 309.858h-32.845c-9.197 0-16.652-7.455-16.652-16.652 0-9.197 7.455-16.652 16.652-16.652h32.845c9.197 0 16.652 7.455 16.652 16.652 0 9.196-7.456 16.652-16.652 16.652z" fill="url(#SVGID_4_)"></path></g><path d="m217.129 214.796c.352-1.427.56-2.91.56-4.445 0-10.222-8.286-18.508-18.507-18.508h-36.505c-10.221 0-18.507 8.286-18.507 18.508 0 1.147.119 2.265.319 3.354-12.772 2.861-22.319 14.259-22.319 27.894 0 15.791 12.801 28.593 28.593 28.593h56.397c15.791 0 28.593-12.802 28.593-28.593-.001-12.285-7.749-22.756-18.624-26.803z" fill="url(#SVGID_5_)" opacity=".46"></path><path d="m0 441.916 86.611-73.064c24.341-20.533 54.165-20.61 78.554-.202l87.557 73.266z" fill="url(#SVGID_6_)"></path><path d="m4.411 355.625v86.291h138.267l-77.001-79.52c-18.9-19.519-41.512-21.762-61.266-6.771z" fill="url(#SVGID_7_)"></path><g><path d="m88.667 441.916 86.611-73.064c24.341-20.533 54.165-20.61 78.554-.202l87.557 73.266z" fill="url(#SVGID_8_)"></path><g><path d="m90.499 393.784h23.502c7.432 0 14.559-3.112 19.814-8.65 10.943-11.534 28.685-11.534 39.627 0l53.874 56.783h-194.09l37.46-39.482c5.254-5.539 12.381-8.651 19.813-8.651z" fill="url(#SVGID_9_)"></path></g></g><g><path d="m296.351 210.301c0-9.485 7.689-17.174 17.174-17.174h34.45c23.42 0 42.406 18.986 42.406 42.406v213.501h-146.597v-186.167c0-19.547 15.846-35.392 35.392-35.392 9.486 0 17.175-7.689 17.175-17.174z" fill="url(#SVGID_10_)"></path><path d="m347.975 193.127c-9.095 0-16.469 7.373-16.469 16.469v62.33c0 9.736-7.967 17.51-17.703 17.578-9.65.067-17.453 7.911-17.453 17.577v141.953h94.03v-213.501c0-23.42-18.985-42.406-42.405-42.406z" fill="url(#SVGID_11_)"></path><g><path d="m320.576 449.034h69.804v-94.622l-69.804-69.805z" fill="url(#SVGID_12_)"></path><path d="m279.18 295.544c-12.387 0-22.428 10.042-22.428 22.428v45.663h67.285v-68.091c0-10.534-8.539-19.073-19.073-19.073h-6.71c-10.534-.001-19.074 8.539-19.074 19.073z" fill="url(#SVGID_13_)"></path></g><g><path d="m283.378 449.034h107.002l-107.002-107.002z" fill="url(#SVGID_14_)"></path><path d="m248.683 327.434h5.791c19.839 0 35.921 16.082 35.921 35.921v85.679h-67.41v-95.902c0-14.193 11.505-25.698 25.698-25.698z" fill="url(#SVGID_15_)"></path></g></g><g><path d="m457.745 104.521c0-10.225-8.289-18.514-18.513-18.514h-37.137c-25.247 0-45.714 20.467-45.714 45.714v318.587h158.031v-289.12c0-21.071-17.082-38.153-38.153-38.153-10.226 0-18.514-8.289-18.514-18.514z" fill="url(#SVGID_16_)"></path><path d="m356.38 182.076h79.015v129.416h-79.015z" fill="url(#SVGID_17_)"></path><path d="m514.411 450.309v-289.121c0-21.071-17.082-38.153-38.153-38.153-10.31 0-18.388-8.436-18.515-18.746-.124-10.118-8.365-18.281-18.512-18.281-10.706 0-19.384 8.679-19.384 19.384v65.561c0 10.465 8.484 18.949 18.949 18.949 10.465 0 18.949 8.484 18.949 18.949v241.458z" fill="url(#SVGID_18_)"></path><path d="m439.162 450.309h75.249v-131.592l-75.249-75.249z" fill="url(#SVGID_19_)"></path><path d="m394.537 255.257c-13.353 0-24.178 10.825-24.178 24.178v49.224h72.533v-73.402c0-11.356-9.206-20.561-20.561-20.561h-7.233c-11.355 0-20.561 9.206-20.561 20.561z" fill="url(#SVGID_20_)"></path>
<path d="m399.063 450.309h115.348v-29.589l-115.348-115.348z" fill="url(#SVGID_21_)"></path>
<path d="m351.906 289.635h15.998c21.386 0 38.723 17.337 38.723 38.723v121.951h-91.333v-124.062c-.001-20.22 16.391-36.612 36.612-36.612z" fill="url(#SVGID_22_)"></path></g>
<g><path d="m308.935 401.465h-29.877c-9.448 0-18.508-3.753-25.189-10.434-13.911-13.911-36.466-13.911-50.378 0l-68.489 68.489h246.744l-47.622-47.622c-6.68-6.68-15.741-10.433-25.189-10.433z" fill="url(#SVGID_23_)"></path>
<path d="m334.124 411.899c-6.68-6.68-15.741-10.434-25.189-10.434h-29.878c-9.35 0-18.43-3.571-24.99-10.234-8.161-8.288-19.361-11.723-30.047-10.321l40.225 40.225c7.05 7.05 16.613 11.011 26.583 11.011 9.971 0 19.533 3.961 26.583 11.011l16.363 16.363h47.971z" fill="url(#SVGID_24_)"></path>
</g><path d="m4.411 487.843c0 13.455 10.907 24.362 24.362 24.362h461.276c13.455 0 24.362-10.907 24.362-24.362v-45.927h-510v45.927z" fill="url(#SVGID_25_)"></path>
<path d="m226.168 486.462h-47.97-.001-94.812c-1.483 0-2.685 1.029-2.685 2.298 0 9.054 3.906 17.22 10.259 23.446h72.81c1.534-.817 3.024-1.648 4.459-2.492.729.07 1.444.151 2.182.215 30.611 2.653 58.969-7.989 58.969-22.021-.001-.799-1.438-1.446-3.211-1.446z" fill="url(#SVGID_26_)"></path>
<g><path d="m183.935 476.71c-11.342-9.27-29.822-21.039-53.917-25.009-25.601-4.218-49.317 12.702-49.317 35.013 0 1.269 1.202 2.297 2.685 2.297h94.812c7.528.001 11.182-7.851 5.737-12.301z" fill="url(#SVGID_27_)"></path>
<path d="m105.94 481.275c13.562-5.83 35.659-13.232 64.469-15.729 30.611-2.653 58.969 7.989 58.969 22.021 0 .798-1.437 1.445-3.21 1.445h-113.367c-9.002 0-13.371-4.938-6.861-7.737z" fill="url(#SVGID_28_)"></path></g>
<path d="m305.741 48.33h-7.964c0-9.968-8.081-18.049-18.049-18.049h-35.6c-9.968 0-18.049 8.081-18.049 18.049s8.081 18.049 18.049 18.049h7.963c0 9.968 8.081 18.049 18.049 18.049h35.6c9.968 0 18.049-8.081 18.049-18.049.001-9.968-8.079-18.049-18.048-18.049z" fill="url(#SVGID_29_)"></path></g></svg>

<symbol id="clue__sprite_ice" viewBox="0 0 36 36"><path fill="#F5F8FA" d="M4.66 7.479c1.928.786 5.193 1.693 8.25 2.556c2.76.78 4.727 1.8 4.727 4.279c0 1.126-.136 4.519-.185 8.533c.41-.104.791-.153 1.196-.117l-.001-.134c-.038-4.321-.179-8.044-.178-9.239c.003-2.529 1.817-2.208 4.667-2.996c1.297-.359 7.232-1.686 9.209-2.103c1.658-.35 1.012-1.059.494-1.617c-.034.107-.147.202-.383.273c-1.51.453-10.716 2.236-12.941 2.859c-1.569.439-3.591-.367-6.007-1.349c-2.416-.981-8.53-2.416-9.738-2.869a1.547 1.547 0 0 1-.57-.362c-.094.052-.19.103-.278.161c.066-.003.12-.011.19-.012c.477-.008-.195 1.427 1.548 2.137z"></path>
<path fill="#ADD3E0" d="M1.009 10.872c.096 2.553.356 9.03.119 11.941c-.157 1.923.24 3.361.996 4.403c.204-.333.64-.608 1.36-.736c3.752-.669 9.878-2.385 12.344-3.136c.654-.199 1.16-.378 1.625-.496c.049-4.014.185-7.407.185-8.533c0-2.479-1.967-3.499-4.727-4.279c-3.058-.864-6.323-1.771-8.251-2.557c-1.743-.71-1.071-2.145-1.548-2.138c-.069.001-.123.01-.19.012C1.293 6.432.919 8.508 1.009 10.872z"></path>
<path fill="#C1E1EA" d="M33.208 27.8c.425.097.866.309 1.268.583c.438-.907.341-2.082.275-3.431c-.119-2.436.059-10.099.238-13.604c.148-2.909-.822-4.267-2.167-4.907a.254.254 0 0 1 .019.2c.517.558 1.163 1.267-.494 1.617c-1.978.417-7.912 1.745-9.209 2.103c-2.85.788-4.664.467-4.667 2.996c-.001 1.195.14 4.919.178 9.239l.001.134c.47.042.98.194 1.638.526c1.367.691 10.883 4.079 12.92 4.544z"></path>
<path fill="#D2ECF3" d="M13.509 8.424c2.416.981 4.437 1.788 6.007 1.349c2.225-.622 11.431-2.406 12.941-2.859c.237-.071.35-.166.383-.273a4.563 4.563 0 0 1-.286-.327a4.983 4.983 0 0 0-.595-.194c-2.554-.654-8.436-2.495-10.931-3.386c-1.977-.706-4.487-.591-6.594-.119c-2.34.524-7.081 1.706-9.446 2.02c-.71.094-1.296.289-1.788.559c.138.139.32.268.57.362c1.209.452 7.323 1.886 9.739 2.868z"></path>
<path opacity=".5" fill="#CFE1EA" d="M18.648 22.73a3.517 3.517 0 0 0-1.196.117l-.006.493c-.048 4.716.194 8.644.127 9.281c-.046.438-.315.814-.717 1.072c.821.1 1.641.088 2.424-.042c-.451-.385-.71-.998-.771-1.608c-.064-.655.176-4.556.139-9.313z"></path>
<path fill="#9BC2D4" d="M17.573 32.621c.067-.637-.176-4.564-.127-9.281l.006-.493c-.465.117-.971.297-1.625.496c-2.466.751-8.592 2.467-12.344 3.136c-.719.128-1.156.404-1.36.736a4.834 4.834 0 0 0 2.152 1.657c2.079.832 6.772 2.495 9.743 3.98c.9.45 1.868.721 2.838.84c.403-.257.671-.633.717-1.071zm14.505-2.62c1.347-.331 2.046-.888 2.398-1.618c-.402-.274-.843-.486-1.268-.583c-2.037-.465-11.554-3.853-12.922-4.544c-.658-.332-1.168-.485-1.638-.526c.037 4.758-.203 8.658-.138 9.313c.061.611.32 1.223.771 1.608a7.529 7.529 0 0 0 1.451-.382c2.019-.773 8.197-2.496 11.346-3.268z"></path>
<path fill="#C1E1EA" d="M7.571 18.69c-3.911 3.322-5.322 9.72-5.206 6.824c.096-2.391-.017-9.487-.006-12.439c.009-2.491.416-4.634 3.725-3.095c2.538 1.18 7.2 2.114 9.384 3.59c1.411.954-2.464.505-7.897 5.12z"></path>
<path fill="#D2ECF3" d="M30.169 15.439c2.65 1.793 3.569 5.587 3.497 3.781c-.06-1.491.006-4.939 0-6.779c-.006-1.553.19-2.874-1.997-2.245c-1.88.54-5.124.847-6.486 1.767c-.88.594 1.408 1.056 4.986 3.476z"></path>
</symbol>

 

<symbol id="clue__sprite_cold" viewBox="0 0 64 64" >
<g>
<rect style="fill:#87ced9" x="31" y="10"/>
<rect style="fill:#87ced9" transform="translate(-11.776 20.239) rotate(-29.995)" x="9.886" y="31.097"/>
<rect style="fill:#87ced9" transform="translate(-11.713 43.28) rotate(-60)" x="30.625" y="9.783"/>
<path d="M32,11a1,1,0,0,1-.555-.168l-3-2A1,1,0,0,1,28,8V5a1,1,0,0,1,.445-.832l3-2a1,1,0,0,1,1.11,0l3,2A1,1,0,0,1,36,5V8a1,1,0,0,1-.445.832l-3,2A1,1,0,0,1,32,11ZM30,7.465,32,8.8l2-1.333V5.535L32,4.2,30,5.535Z" style="fill:#a7e1eb"/>
<path d="M32,62a1,1,0,0,1-.555-.168l-3-2A1,1,0,0,1,28,59V56a1,1,0,0,1,.445-.832l3-2a1,1,0,0,1,1.11,0l3,2A1,1,0,0,1,36,56v3a1,1,0,0,1-.445.832l-3,2A1,1,0,0,1,32,62Zm-2-3.535L32,59.8l2-1.333v-1.93L32,55.2l-2,1.333Z" style="fill:#a7e1eb"/>
<path d="M32,17a1,1,0,0,1-.641-.231l-6-5,1.282-1.538L32,14.7l5.359-4.467,1.282,1.538-6,5A1,1,0,0,1,32,17Z" style="fill:#a7e1eb"/>
<path d="M37.359,53.769,32,49.3l-5.359,4.467-1.282-1.538,6-5a1,1,0,0,1,1.282,0l6,5Z" style="fill:#a7e1eb"/>
<path d="M10,49.2a1,1,0,0,1-.443-.1l-3.233-1.6a1,1,0,0,1-.555-.961l.233-3.6a1,1,0,0,1,.5-.8l2.6-1.5a1,1,0,0,1,.943-.03l3.232,1.6a1,1,0,0,1,.555.961l-.232,3.6a1,1,0,0,1-.5.8l-2.6,1.5A1,1,0,0,1,10,49.2ZM7.812,46l2.155,1.065,1.67-.964.155-2.4L9.638,42.634,7.967,43.6Z" style="fill:#a7e1eb"/>
<path d="M54.17,23.7a1,1,0,0,1-.443-.1l-3.233-1.6a1,1,0,0,1-.555-.961l.233-3.6a1,1,0,0,1,.5-.8l2.6-1.5a1,1,0,0,1,.943-.03l3.232,1.6a1,1,0,0,1,.555.961l-.232,3.6a1,1,0,0,1-.5.8l-2.6,1.5A1,1,0,0,1,54.17,23.7Zm-2.191-3.2,2.155,1.065L55.8,20.6l.155-2.4-2.154-1.064-1.671.965Z" style="fill:#a7e1eb"/>
<path d="M17.684,47.965l-1.971-.342L16.9,40.749l-6.548-2.408.689-1.877,7.331,2.7a1,1,0,0,1,.641,1.11Z" style="fill:#a7e1eb"/>
<path d="M52.728,27.732l-7.332-2.7a1,1,0,0,1-.64-1.109l1.331-7.7,1.971.342-1.19,6.874,6.549,2.408Z" style="fill:#a7e1eb"/>
<path d="M53.508,48.882a1,1,0,0,1-.5-.134l-2.6-1.5a1,1,0,0,1-.5-.8l-.231-3.6a1,1,0,0,1,.554-.961l3.232-1.6a1,1,0,0,1,.943.03l2.6,1.5a1,1,0,0,1,.5.8l.231,3.6a1,1,0,0,1-.554.961l-3.232,1.6A.987.987,0,0,1,53.508,48.882Zm-1.635-3.1,1.671.965L55.7,45.683l-.154-2.4-1.671-.965-2.154,1.065Z" style="fill:#a7e1eb"/>
<path d="M9.341,23.382a1,1,0,0,1-.5-.134l-2.6-1.5a1,1,0,0,1-.5-.8l-.231-3.6a1,1,0,0,1,.554-.961l3.232-1.6a1,1,0,0,1,.943.03l2.6,1.5a1,1,0,0,1,.5.8l.231,3.6a1,1,0,0,1-.554.961l-3.232,1.6A.987.987,0,0,1,9.341,23.382Zm-1.635-3.1,1.671.965,2.154-1.065-.154-2.4-1.671-.965L7.552,17.884Z" style="fill:#a7e1eb"/>
<path d="M45.826,47.649l-1.33-7.7a1,1,0,0,1,.64-1.108l7.33-2.7.691,1.877-6.549,2.409L47.8,47.31Z" style="fill:#a7e1eb"/>
<path d="M10.784,27.418l-.691-1.877,6.549-2.408-1.189-6.876,1.971-.34,1.33,7.7a1,1,0,0,1-.64,1.109Z" style="fill:#a7e1eb"/>
<path d="M22,49a1,1,0,0,1-.994-1.112L22.213,37.21l-9.621-4.3a1,1,0,0,1-.013-1.82L22.471,26.5,22,16.045a1,1,0,0,1,1.577-.861L32,21.149l8.422-5.965A1,1,0,0,1,42,16.1l-.972,10.261L51.415,31.09a1,1,0,0,1-.019,1.828L41.177,37.323l.82,10.6a1,1,0,0,1-1.575.893L31.971,42.83l-9.434,6.013A1,1,0,0,1,22,49ZM15.413,31.982l8.284,3.7a1,1,0,0,1,.586,1.025L23.229,46.03l8.234-5.248a1,1,0,0,1,1.115.027l7.261,5.143-.711-9.187a1,1,0,0,1,.6-.995l8.8-3.8-8.986-4.094a1,1,0,0,1-.58-1l.833-8.8-7.221,5.115a1,1,0,0,1-1.156,0L24.091,18,24.5,27.08a1,1,0,0,1-.578.952Z" style="fill:#a7e1eb"/>
</g>
</symbol>

<symbol id="clue__sprite_cool" viewBox="0 0 128 128" >
<defs>
<style>.cls-1{fill:#ffffff;}.cls-2{fill:#f0faff;}.cls-3{fill:#40c4ff;}.cls-4,.cls-5{fill:none;stroke:#000000;stroke-linecap:round;stroke-linejoin:round;stroke-width:4px;}.cls-4{stroke-dasharray:104 8 0.25 8 1000;}</style>
</defs>
<g data-name="10 thermometer" id="_10_thermometer">
<path class="cls-1" d="M50.59,37.44l-6.24-2.27a4,4,0,0,0-1.21-6.82l5.09-4.27A4,4,0,0,0,43.09,18L38,22.22a4,4,0,0,0-6.51-2.37l-1.15-6.54a4,4,0,1,0-7.88,1.39l1.15,6.54a4,4,0,0,0-5.31,4.45l-6.24-2.27a4,4,0,0,0-2.74,7.52l6.25,2.27A4,4,0,0,0,16.77,40L11.68,44.3a4,4,0,0,0,5.14,6.13l5.09-4.27a4,4,0,0,0,6.51,2.37l1.16,6.54a4,4,0,1,0,7.88-1.39L36.3,47.14a4,4,0,0,0,5.31-4.45L47.85,45a4,4,0,1,0,2.74-7.52Z"/>
<rect class="cls-2" rx="4" x="38" y="4"/>
<path class="cls-3" d="M76,112a12,12,0,1,1-20.44-8.51A8.11,8.11,0,0,0,58,97.74V90a6,6,0,0,0,12,.41v7.34a8,8,0,0,0,2.37,5.68A11.92,11.92,0,0,1,76,112Z"/>
<path class="cls-1" d="M114,106.83l-3.88-3.26,4.76-1.73a4,4,0,0,0-2.73-7.52l-4.77,1.73.88-5a4,4,0,1,0-7.88-1.39l-.88,5L95.66,91.4a4,4,0,0,0-5.15,6.13l3.89,3.26-4.77,1.74A4,4,0,1,0,92.37,110l4.77-1.73-.89,5a4,4,0,1,0,7.88,1.39l.88-5L108.9,113a4,4,0,0,0,5.14-6.13Z"/>
<path class="cls-4" d="M90,91.93V8a4,4,0,0,0-4-4H42a4,4,0,0,0-4,4V120a4,4,0,0,0,4,4H86a4,4,0,0,0,4-4v-9.84"/>
<path class="cls-5" d="M54,24h4m12,0h4M58,36H50m28,0H70M58,48H54m16,0h4m4,12H70M50,60h8m0,12H54m16,0h4m4,12H70M50,84h8m0,12H54m16,0h4M58,90a6,6,0,0,0,12,.41m0,7.34V22.25A6.17,6.17,0,0,0,64.18,16,6,6,0,0,0,58,22V97.74a8.11,8.11,0,0,1-2.44,5.75A11.92,11.92,0,0,0,52,112.28,12,12,0,0,0,76,112a11.92,11.92,0,0,0-3.63-8.58A8,8,0,0,1,70,97.74ZM25.14,28.44l.56.67m-2.27,6.23-.86.15m4.82,5.75.3-.83M32.22,28l.3-.82m4.82,5.75-.86.15m-2.27,6.22.57.67M38,22.22a4,4,0,0,0-6.51-2.37l-1.15-6.54a4,4,0,1,0-7.88,1.39l1.15,6.54a4,4,0,0,0-5.31,4.45l-6.24-2.27a4,4,0,0,0-2.74,7.52l6.25,2.27A4,4,0,0,0,16.77,40L11.68,44.3a4,4,0,0,0,5.14,6.13l5.09-4.27a4,4,0,0,0,6.51,2.37l1.16,6.54a4,4,0,1,0,7.88-1.39L36.3,47.14a4.07,4.07,0,0,0,1.7.23m76,59.46-3.88-3.26,4.76-1.73a4,4,0,0,0-2.73-7.52l-4.77,1.73.88-5a4,4,0,1,0-7.88-1.39l-.88,5L95.66,91.4a4,4,0,0,0-5.15,6.13l3.89,3.26-4.77,1.74A4,4,0,1,0,92.37,110l4.77-1.73-.89,5a4,4,0,1,0,7.88,1.39l.88-5L108.9,113a4,4,0,0,0,5.14-6.13ZM107,22.5v15m-6.5-3.75,13-7.5m-13,0,13,7.5M15,91H30m-3.75,6.5-7.5-13m7.5,0-7.5,13"/>
</g>
</symbol>

<symbol id="clue__sprite_warm" viewBox="0 0 24 24" >
    <g>
        <path fill="none" d="M0 0h24v24H0z"/>
        <path d="M19 9c.667 1.06 1 2.394 1 4 0 3-3.5 4-5 9-.667-.575-1-1.408-1-2.5 0-3.482 5-5.29 5-10.5zm-4.5-4a8.31 8.31 0 0 1 1 4c0 5-6 6-4 13C9.833 20.84 9 19.173 9 17c0-3.325 5.5-6 5.5-12zM10 1c.667 1.333 1 2.833 1 4.5 0 6-9 7.5-3 16.5-2.5-.5-4.5-3-4.5-6C3.5 9.5 10 8.5 10 1z"/>
    </g>
</symbol>

<symbol id="clue__sprite_heat" viewBox="0 0 36 36" >
<path fill="#FFAC33" d="M20.417 22.732c-.21-.087-1.776-.732-2.709-.732c-2 0-4.68-4-6.333-4c-2.667 0-4.62 5.225-6.375 6.042c-1.445.673-2.026 2.686-2.26 4.196c-.157 1.016-.157 1.804-.157 1.804L20.417 30v-7.268z">
</path>
<circle fill="#FFCC4D" cx="8.25" cy="7" r="5">
</circle>
<circle fill="#FFAC33" cx="8.25" cy="7" r="4">
</circle>
<path fill="#FFE8B6" d="M18 25.18C3.438 25.18 0 29.844 0 32s1.791 4 4 4h28c2.209 0 4-1.851 4-4s-3.438-6.82-18-6.82z">
</path>
<path fill="#F4900C" d="M10.063 22.403c-.516 1.407.555 2.343.555 2.343s.058-.696.113-1.603c.056-.931.879-1.563.908-1.896c.095-1.112-.854-1.931-.805-1.541c.104.814-.357 1.568-.771 2.697zm-3.681 2.568c-.375.737-.321 2.496-.321 2.496s.9-.529.94-1.074c.04-.545.014-.834.138-1.15c.352-.9 1.124-.842 1.595-2.088c.167-.44-.194-1.203-.3-.954c-.41.959-1.676 2.033-2.052 2.77zm6.045-.337c-.116-.322.124-2.378.328-2.1c.204.278-.006 1.161.664 1.886c.837.905.721 1.981.491 1.498c-.231-.484-1.367-.962-1.483-1.284z">
</path>
<path fill="#FFAC33" d="M20.417 27.895v-2.592c-2.263-.383-11.524-1.598-17.676 2.936c-.173.128-.184.403-.184.491c0 1.112 3.763-.342 8.31.178c2.185.25 4.613.427 5.258-.052c.218-.162-.328-.727-1.352-1.236c.513-.132 1.045-.25 1.654-.243c1.983.018 3.3.312 3.99.518z">
</path>
<path fill="#77B255" d="M16.535 12.174c1.398 0 2.5 1.135 2.5 2.535v5.782c0 .688 1 1.241 1 1.551V11.441c0-2.1 1.9-3.802 4-3.802s4 1.702 4 3.802v13.171c1-.301 1-.869 1-1.587v-3.247c0-1.4 1.101-2.535 2.5-2.535s2.5 1.135 2.5 2.535v4.435c0 1.399-.94 2.455-1.971 3.049c-.787.455-3.029 1.014-4.029 1.047v3.024c0 2-8 2-8 0v-5.567c-1-.075-3.185-.604-3.937-1.038c-1.03-.594-2.064-1.649-2.064-3.05v-6.97c.001-1.399 1.1-2.534 2.501-2.534z">
</path>
<g fill="#3E721D">
<circle cx="32.5" cy="26.748" r=".634">
</circle>
<circle cx="29.966" cy="22.312" r=".634">
</circle>
<circle cx="34.401" cy="21.045" r=".634">
</circle>
<circle cx="17.293" cy="24.847" r=".634">
</circle>
<circle cx="15.392" cy="19.778" r=".634">
</circle>
<circle cx="17.927" cy="16.61" r=".634">
</circle>
<circle cx="14.125" cy="14.709" r=".634">
</circle>
<circle cx="21.728" cy="29.649" r=".634">
</circle>
<circle cx="27.43" cy="26.114" r=".634">
</circle>
<circle cx="22.996" cy="22.312" r=".634">
</circle>
<circle cx="26.798" cy="19.778" r=".634">
</circle>
<circle cx="22.362" cy="15.343" r=".634">
</circle>
<circle cx="28.064" cy="13.442" r=".634">
</circle>
<circle cx="21.094" cy="9.541" r=".634">
</circle>
</g>
<path fill="#F4900C" d="M14.761 27.616s-1.128-.357-1.784-.451s2.588-.271 4.106.224c-1.518-.024-2.322.227-2.322.227z">
</path>
</symbol>

<symbol id="clue__sprite_blaze" viewBox="0 0 64 64">
<path d="M57 26.2s-3 2.8-8.1 6.1C47.5 24.2 43.6 14.2 36 2c0 0-2.5 13.1-10.8 25.4c-3.6-5.6-5.2-10-5.2-10C-6 43.5 15.6 62 29.2 62c17.4 0 32.7-8.4 27.8-35.8" fill="#ff9d33">
</path>
<path d="M46.7 49.4c1.5-3.3 2.6-7.6 2.8-13c0 0-2.1 1.8-5.7 4.1c-1-5.4-3.7-12-9-20.2c0 0-1.7 8.7-7.5 17c-2.5-3.7-3.6-6.7-3.6-6.7c-4.3 6.8-6 12.2-6.1 16.5c-2.4-.9-3.9-1.6-3.9-1.6c4.1 12.2 12.6 14.9 16.4 14.9c6.8 0 13.7-2 20.5-11.7c0-.1-1.5.3-3.9.7" fill="#ffce31">
</path>
<path d="M21.9 43.9s2.8 3.8 4.9 2.9c0 0 4-6.3 9.8-9.8c0 0-1.2 9.6.2 11.3c1.8 2.3 6.7-2.5 6.7-2.5c0 5.7-6.2 12.8-11.8 12.8c-5.4 0-13.2-6.2-9.8-14.7" fill="#ffdf85">
</path>
<g fill="#ff9d33">
<path d="M49.8 18.1c2.1-3 3.5-6.2 3.5-6.2c3.5 5.8 1.4 9.3-.1 10.4c-2.1 1.6-5.8-.7-3.4-4.2">
</path>
<path d="M11.6 17.1c-2.1-3.5-2.3-7.9-2.3-7.9c-5 7.5-3.1 11.7-1.4 12.9c2.2 1.7 6-.9 3.7-5">
</path>
<path d="M23.2 9.3c.3-2.4-.7-4.8-.7-4.8c4.7 3.1 4.7 5.7 4.1 6.8c-.9 1.3-3.7.7-3.4-2">
</path>
</g>
</symbol>

<symbol  id="clue__sprite_fire" viewBox="0 0 512 512" >
<path style="fill:#FF9C01;" d="M222.963,166.332L222.963,166.332l-16.699-16.881h-0.001l-16.699,16.881l0,0l-74.256,75.062 c0,10.195,0,76.269,0,85.647c6.965,0,173.98,0,181.911,0c0-19.289,0-66.844,0-85.647L222.963,166.332z"></path>
<path style="fill:#FF8103;" d="M140.68,215.746l-25.373,25.648c0,10.195,0,76.269,0,85.647c10.925,0,14.379,0,25.373,0V215.746z"></path><path style="fill:#8C614B;" d="M321.263,232.24L215.149,124.972c-2.322-2.347-5.485-3.667-8.786-3.667 c-3.566,0-6.658,1.416-8.886,3.667L91.362,232.24c-4.801,4.852-4.758,12.676,0.094,17.476c4.852,4.799,12.676,4.758,17.476-0.094 c0.002-0.002,97.379-98.337,97.379-98.337l0,0c0.12-0.155-0.117,0.153,0,0l0,0c0.01,0.024-0.01-0.024,0,0l0,0 c0.01-0.024-0.01,0.024,0,0l0,0c0.117,0.153-0.12-0.155,0,0l0,0c0,0,97.377,98.334,97.38,98.337 c4.8,4.852,12.625,4.893,17.476,0.094C326.022,244.917,326.064,237.092,321.263,232.24z"></path>
<rect x="295.19" y="347.701" style="fill:#F7CE4D;" width="183.94" height="137.39"></rect><rect x="295.19" y="347.701" style="fill:#EDB926;" width="26.41" height="137.39"></rect><g><path style="fill:#725346;" d="M27.572,490.674c-4.204,0-7.612-3.407-7.612-7.612v-90.648c0-4.204,3.408-7.612,7.612-7.612 s7.612,3.407,7.612,7.612v90.648C35.184,487.267,31.776,490.674,27.572,490.674z"></path>
<path style="fill:#725346;" d="M56.665,490.674c-4.204,0-7.612-3.407-7.612-7.612v-90.648c0-4.204,3.408-7.612,7.612-7.612 s7.612,3.407,7.612,7.612v90.648C64.277,487.267,60.869,490.674,56.665,490.674z"></path><path style="fill:#725346;" d="M85.76,490.674c-4.204,0-7.612-3.407-7.612-7.612v-90.648c0-4.204,3.408-7.612,7.612-7.612 s7.612,3.407,7.612,7.612v90.648C93.372,487.267,89.964,490.674,85.76,490.674z"></path>
</g><g><path style="fill:#8C614B;" d="M113.277,421.874H7.612c-4.204,0-7.612-3.407-7.612-7.612c0-4.204,3.408-7.612,7.612-7.612h105.665 c4.204,0,7.612,3.408,7.612,7.612C120.889,418.467,117.481,421.874,113.277,421.874z"></path>
<path style="fill:#8C614B;" d="M113.277,458.264H7.612c-4.204,0-7.612-3.407-7.612-7.612c0-4.204,3.408-7.612,7.612-7.612h105.665 c4.204,0,7.612,3.407,7.612,7.612S117.481,458.264,113.277,458.264z">
</path></g><rect x="115.31" y="347.701" style="fill:#FF9C01;" width="181.91" height="137.39"></rect>
<rect x="115.31" y="347.701" style="fill:#FF8103;" width="25.373" height="137.39"></rect>
<path style="fill:#94DCED;" d="M213.836,233.165h-41.563c-2.153,0-3.897,1.744-3.897,3.897V287.4c0,2.154,1.744,3.899,3.897,3.899 h64.396C223.259,275.084,216.016,254.351,213.836,233.165z"></path>
<path style="fill:#8C614B;" d="M486.523,325.011c-11.519,0-375.467,0-380.632,0c-6.826,0-12.358,5.532-12.358,12.358 c0,6.824,5.532,12.358,12.358,12.358h67.228c11.007,0,302.44,0,313.404,0c6.826,0,12.358-5.534,12.358-12.358 C498.882,330.544,493.349,325.011,486.523,325.011z"></path>
<path style="fill:#725346;" d="M486.523,337.424c-10.884,0-370.758,0-380.632,0c-4.583,0-8.574-2.502-10.708-6.207 c-4.735,8.229,1.221,18.511,10.708,18.511h67.228c3.637,0,304.911,0,313.404,0c6.826,0,12.358-5.534,12.358-12.358 c0-2.242-0.607-4.339-1.65-6.153C495.098,334.922,491.107,337.424,486.523,337.424z"></path>
<g><path style="fill:#76B4FF;" d="M172.274,233.165h33.989v58.134h-33.989c-2.153,0-3.897-1.745-3.897-3.899v-50.338 C168.377,234.909,170.121,233.165,172.274,233.165z"></path>
<path style="fill:#76B4FF;" d="M244.15,438.665c0,2.153-1.744,3.897-3.897,3.897h-67.979c-2.154,0-3.897-1.744-3.897-3.897v-50.339 c0-2.153,1.743-3.897,3.897-3.897h67.979c2.153,0,3.897,1.744,3.897,3.897V438.665z"></path></g>
<path style="fill:#94DCED;" d="M240.253,384.429h-33.99v58.133h33.99c2.153,0,3.897-1.744,3.897-3.897v-50.339 C244.15,386.173,242.405,384.429,240.253,384.429z"></path>
<path style="fill:#F23516;" d="M363.257,5.266c-0.703-0.705-1.664-1.08-2.663-1.04c-0.994,0.042-1.925,0.499-2.566,1.259 c-17.473,20.715-19.573,44.975,1.915,64.348c1.44,1.297,3.65,1.201,4.972-0.211c4.098-4.38,13.648-16.201,13.814-31.337 C378.855,26.782,373.649,15.673,363.257,5.266z"></path>
<path style="fill:#D62C1A;" d="M369.936,13.013c-1.917-2.622-4.141-5.205-6.679-7.748c-0.703-0.705-1.664-1.08-2.663-1.04 c-0.994,0.042-1.925,0.499-2.566,1.259c-4.329,5.132-14.319,18.791-13.6,34.752c0.487,10.795,5.707,20.753,15.515,29.596 c0.679,0.611,1.529,0.914,2.378,0.914c0.949,0,1.896-0.379,2.595-1.125c1.742-1.862,4.468-5.079,7.041-9.313 C360.368,45.554,360.81,29.045,369.936,13.013z"></path>
<rect x="338.84" y="388.491" style="fill:#725346;" width="98.78" height="32.878"></rect><rect x="338.84" y="421.371" style="fill:#8C614B;" width="98.78" height="32.878"></rect><rect x="338.84" y="454.241" style="fill:#725346;" width="98.78" height="32.877"></rect><rect x="338.84" y="388.491" style="fill:#54423C;" width="25.373" height="32.878"></rect><rect x="338.84" y="421.371" style="fill:#725346;" width="25.373" height="32.878"></rect>
<g><rect x="338.84" y="454.241" style="fill:#54423C;" width="25.373" height="32.877"></rect><path style="fill:#54423C;" d="M448.522,392.041H327.883c-4.204,0-7.612-3.407-7.612-7.612c0-4.204,3.408-7.612,7.612-7.612 h120.639c4.204,0,7.612,3.408,7.612,7.612C456.134,388.633,452.726,392.041,448.522,392.041z"></path></g><path style="fill:#1C9B4F;" d="M499.63,483.062c-53.901,0-194.421,0-246.025,0h-28.832c-4.316,0-200.56,0-204.803,0 c-6.826,0-12.358,5.532-12.358,12.358c0,6.824,5.532,12.358,12.358,12.358h67.228c6.273,0,133.915,0,137.576,0h28.832h41.222 c9.638,0,195.168,0,204.803,0c6.827,0,12.359-5.534,12.359-12.358C511.989,488.595,506.457,483.062,499.63,483.062z"></path>
<path style="fill:#20894A;" d="M499.63,495.421c-9.636,0-195.166,0-204.803,0h-41.222h-28.832c-10.827,0-194.611,0-204.803,0 c-4.572,0-8.554-2.49-10.691-6.18c-4.769,8.233,1.197,18.538,10.691,18.538h67.228c6.273,0,133.915,0,137.576,0h28.832h41.222 c9.638,0,195.168,0,204.803,0c9.507,0,15.456-10.314,10.692-18.538C508.185,492.931,504.202,495.421,499.63,495.421z"></path>
<path style="fill:#725346;" d="M309.473,237.955l-98.667-99.636h-0.001c-4.421-4.464-8.773-0.212-8.968-0.018l-98.684,99.654 c-4.133,4.179-10.383,4.988-15.337,2.416c-0.508,11.257,13.167,17.288,21.117,9.251l97.379-98.336 c-0.025,0.018-0.049,0.035,0.001-0.001c0,0,0,0-0.001,0c-0.025-0.018-0.047-0.034-0.001-0.001c-0.03-0.039-0.058-0.076,0.002,0.001 c0.06-0.077,0.031-0.04,0.001-0.001c0.046-0.032,0.024-0.017-0.001,0.001l0,0c0.048,0.035,0.026,0.019,0.001,0.002l97.378,98.335 c4.8,4.852,12.625,4.893,17.476,0.094c2.586-2.559,3.793-5.976,3.641-9.345C319.855,242.943,313.606,242.134,309.473,237.955z"></path>
<path style="fill:#FF5E48;" d="M413.985,230.674c-0.955-0.788-2.242-1.038-3.424-0.665l-26.191,8.258 c15.606-15.521,19.944-49.876,2.759-67.842c-11.374-11.894-15.116-31.029-16.333-41.375c-0.383-3.263-4.563-4.398-6.546-1.778 c-7.346,9.714-11.976,22.788-13.883,28.911l-0.571-0.132c0.684-8.873,0.268-32.935-20.293-55.437 c-16.33-17.87-16.767-35.025-14.257-46.269c0.701-3.138-2.722-5.594-5.476-3.915c-34.448,21.089-55.677,50.505-63.096,87.428 c-5.974,29.739-0.243,53.49-0.185,53.727c-9.078-6.065-17.462-16.376-21.653-21.982c-1.752-2.336-5.358-1.773-6.356,0.92 c-23.325,62.954-0.241,154.543,93.084,154.543c42.201,0,72.554-16.184,90.216-48.103c9.446-17.069,12.521-34.303,13.513-43.056 C415.433,232.677,414.94,231.46,413.985,230.674z"></path>
<path style="fill:#CE4542;" d="M314.849,72.73c-2.735-15.18,2.91-19.329-1.046-22.156c-1.193-0.852-2.782-0.908-4.034-0.145 c-34.448,21.089-55.677,50.505-63.096,87.428c-5.974,29.739-0.243,53.49-0.185,53.727c-9.078-6.065-17.462-16.376-21.653-21.982 c-1.752-2.336-5.358-1.773-6.356,0.92c-25.957,70.057,7.303,154.502,89.5,154.502C244.095,252.098,246.99,142.226,314.849,72.73z"></path>
<path style="fill:#FF9C01;" d="M368.915,268.363l-15.053,4.747c9.146-9.099,11.756-30.044,1.651-40.612 c-6.553-6.851-8.859-17.818-9.649-23.748c-0.311-2.339-3.348-3.105-4.723-1.161c-3.855,5.472-6.364,12.379-7.51,15.991l-0.409-0.095 c0.414-5.586-0.043-19.466-12.205-32.774c-9.435-10.324-9.945-20.276-8.712-26.805c0.192-1.021-0.237-2.058-1.096-2.643 c-0.857-0.583-1.981-0.605-2.859-0.053c-49.477,31.095-37.155,83.434-37.025,83.958v0.002l0,0 c-4.956-3.314-9.537-8.659-12.508-12.559c-0.58-0.761-1.533-1.142-2.477-0.998c-0.947,0.146-1.736,0.8-2.059,1.701 c-6.061,16.957-8.19,44.558,5.753,66.536c11.156,17.587,29.173,25.219,50.244,25.219c37.585,0,58.144-22.753,62.011-53.89 C372.527,269.284,370.72,267.791,368.915,268.363z"></path>
<path style="fill:#FF8103;" d="M256.342,231.61c-0.947,0.146-1.736,0.8-2.059,1.701c-6.061,16.957-8.19,44.558,5.753,66.536 c10.79,17.01,29.072,25.177,47.944,25.177c-20.68-23.607-35.479-52.491-42.116-84.37C258.82,233.812,259.014,231.203,256.342,231.61 z"></path><path style="fill:#F7CE4D;" d="M309.873,257.957c-0.514-0.508-1.212-0.756-1.94-0.751c-0.724,0.03-1.401,0.359-1.873,0.906 c-4.533,5.269-14.998,19.311-14.257,35.845c0.5,11.114,5.946,21.36,16.19,30.451c0.496,0.44,1.115,0.658,1.732,0.658 c0.689,0,1.377-0.272,1.888-0.807c4.284-4.484,14.269-16.603,14.444-32.277C326.19,280.135,320.745,268.687,309.873,257.957z"></path>
</symbol>

</svg> 